<?xml version="1.0" standalone="yes"?>
<svg xmlns="http://www.w3.org/2000/svg" width="1000" height="1000">
<path style="fill:#ffffff; stroke:none;" d="M0 0L0 1000L1000 1000L1000 0L0 0z"/>
<path style="fill:#cc0066; stroke:none;" d="M470 129C505.9 124.463 543.717 128.594 579 136.21C590.45 138.682 601.879 141.64 613 145.333C617.251 146.745 624.433 150.836 628.911 150.018C631.812 149.487 633.79 146.296 635.236 143.999C639.096 137.867 642.327 131.058 644 124C626.94 116.438 608.18 111.591 590 107.576C564.405 101.922 538.229 98 512 98L484 98C480.477 98 475.374 97.1152 472.228 99.0278C469.551 100.655 468.732 104.115 468.301 107C467.214 114.276 467.792 122.035 470 129z"/>
<path style="fill:#cc0033; stroke:none;" d="M470 129C467.602 118.509 467.186 109.233 471 99C457.234 99 443.553 101.313 430 103.586C391.32 110.076 354.038 122.728 319 140.247C307.011 146.242 295.426 152.797 284 159.811C280.976 161.667 273.364 164.976 273.167 169.093C272.949 173.668 279.835 178.99 283 181.482C285.689 183.6 288.743 185.728 292 186.862C298.328 189.065 303.926 183.845 309 180.684C320.548 173.491 332.808 167.706 345 161.755C369.957 149.574 396.963 141.539 424 135.576C438.847 132.301 454.756 129.042 470 129z"/>
<path style="fill:#cc0000; stroke:none;" d="M271 168C255.637 181.103 238.845 192.261 224 206.089C189.909 237.846 161.567 276.371 140.753 318C132.226 335.054 120.853 354.95 118 374C128.331 374.815 138.618 376.971 149 377C153.833 359.294 162.695 342.145 171.219 326C200.656 270.245 243.888 224.156 296 189C291.902 185.886 287.027 184.034 283 180.674C278.474 176.898 275.169 172.085 271 168z"/>
<path style="fill:#66ff66; stroke:none;" d="M303 453C328.328 443.49 351.925 430.262 377 420.194C390.85 414.634 404.823 413.201 418 405.663C437.581 394.461 457.63 382.31 476 369.218C488.648 360.205 500.524 350.584 514 342.674C527.043 335.019 543.548 329.723 558 325.439C566.41 322.946 578.072 321.536 585 316C560.49 302.947 530.446 298 503 298C473.381 298 445.394 302.703 418 314.427C361.307 338.691 315.541 392.239 303 453z"/>
<path style="fill:#66ff33; stroke:none;" d="M305 555C315.398 553.471 325.019 549.258 335 546.205C363.801 537.396 392.426 526.329 420 514.138C427.881 510.654 435.069 505.759 443 502.336C476.815 487.745 510.12 471.925 544 457.427C556.977 451.874 571.311 449.772 584 443.738C607.262 432.677 629.986 420.139 653 408.623C660.346 404.948 666.398 399.276 674 396C666.577 382.055 656.128 369.146 645 358C632.601 345.581 619.067 334.822 604 325.8C598.994 322.803 591.969 317.46 586 317.027C582.286 316.758 577.541 319.112 574 320.205C564.576 323.115 555.365 326.583 546 329.623C535.207 333.125 524.004 336.635 514 342.104C499.597 349.979 487.467 360.788 474 369.907C453.134 384.038 431.297 398.098 409 409.833C399.094 415.047 387.513 415.971 377 419.81C360.505 425.835 344.824 434.246 329 441.777C323.112 444.579 316.988 446.915 311 449.512C308.231 450.714 304.882 451.529 303.164 454.228C299.268 460.349 299.631 470.977 298.718 478C295.439 503.247 298.121 530.577 305 555z"/>
<path style="fill:#cc3300; stroke:none;" d="M117 374C114.834 384.465 111.046 394.567 108.651 405C103.366 428.032 99.703 451.439 98.0895 475C96.2605 501.709 97.7173 529.535 101.282 556C102.546 565.378 104.79 574.626 106 584L137 584C134.924 567.927 130.72 552.208 129.17 536C126.887 512.12 126.887 487.88 129.17 464C130.899 445.912 134.107 427.573 138.735 410C141.594 399.14 146.366 388.065 148 377C137.626 376.786 127.374 374.214 117 374z"/>
<path style="fill:#66ff00; stroke:none;" d="M305 555C309.579 574.791 319.206 593.96 330.054 611C333.119 615.814 338.301 626.118 344.174 627.678C350.318 629.311 359.215 624.572 365 622.706C380.812 617.607 396.822 612.324 413 608.503C434.476 603.431 455.092 597.229 476 590.206C482.575 587.998 489.511 587.075 496 584.627C502.471 582.186 508.548 578.615 515 576.014C522.877 572.839 531.11 570.63 539 567.492C553.22 561.836 567.01 555.047 581 548.862C594.885 542.723 609.196 537.612 623 531.309C632.785 526.84 642.962 523.883 653 520.128C660.393 517.363 667.453 513.523 675 511.205C682.382 508.938 696.192 507.21 700.972 500.363C702.542 498.114 701.999 494.584 702 492C702.003 485.571 701.557 479.375 700.718 473C697.22 446.393 688.877 418.557 674 396C665.686 398.446 659.626 404.808 652 408.623C628.986 420.139 606.262 432.677 583 443.738C572.524 448.72 560.766 450.33 550 454.601C527.318 463.6 505.386 474.649 483 484.336C424.709 509.561 367.457 540.716 305 555z"/>
<path style="fill:#66cc00; stroke:none;" d="M343 628C357.752 650.302 383.364 668.399 407 680.247C487.997 720.849 591.209 703.976 651.714 635C667.985 616.451 680.87 595.083 689.575 572C698.208 549.107 702 525.366 702 501C695.739 502.804 690.204 506.437 684 508.481C643.293 521.893 604.387 539.26 565 556.127C515.272 577.423 464.612 596.078 412 608.503C404.813 610.2 398.034 612.922 391 615.023C384.736 616.894 378.227 617.626 372 619.796C362.754 623.017 352.902 627.768 343 628z"/>
<path style="fill:#cc6600; stroke:none;" d="M106 584C110.119 598.653 113.123 613.537 118.004 628C128.205 658.23 142.142 686.717 158.601 714C164.672 724.064 171.572 733.609 178.627 743C183.006 748.83 187.315 755.402 193 760C196.416 751.783 196.637 743.176 199.595 735C200.692 731.969 203.868 729.479 203.289 726C202.689 722.399 199.195 718.88 197.141 716C192.725 709.808 188.461 703.447 184.424 697C171.749 676.755 160.921 655.337 152.424 633C148.177 621.834 144.276 610.537 141.151 599C140.154 595.318 139.608 587.459 136.411 585.028C134.268 583.398 130.512 584.001 128 584L106 584z"/>
<path style="fill:#cccc99; stroke:none;" d="M839 653C824.54 687.776 802.158 720.011 777.166 748C764.529 762.153 750.739 777.238 735 788C736.555 794.795 741.219 800.478 743.681 807C744.569 809.355 745.478 813.406 748.275 814.208C752.397 815.388 757.211 810.233 760 807.919C770.181 799.47 779.658 790.357 789 781C815.726 754.231 839.283 721.841 856.247 688C861.422 677.677 868.963 666.465 871 655C860.232 655 849.505 655.718 839 653z"/>
<path style="fill:#cc9900; stroke:none;" d="M204 727C198.713 734.868 198.963 742.169 196.367 751C195.405 754.27 192.873 757.447 193.963 761C195.168 764.93 199.094 768.011 201.715 771C207.829 777.971 214.404 784.479 221 790.996C250.247 819.895 285.366 842.93 322 861.247C330.863 865.679 339.797 869.719 349 873.4C352.598 874.839 357.024 877.497 361 877.277C370.817 876.734 379.898 861.354 382 853C331.762 836.625 286.044 808.158 247 772.83C236.793 763.595 227.325 753.362 218.285 743C213.626 737.659 209.643 731.319 204 727z"/>
<path style="fill:#cccc66; stroke:none;" d="M734 789C714.365 806.1 691.589 818.922 669 831.575C663.256 834.792 657.016 837.459 651 840.139C648.022 841.465 644.166 842.44 641.818 844.815C638.643 848.027 637.699 853.946 635.908 858C632.259 866.263 626.016 874.188 624 883C633.56 880.787 642.902 876.639 652 873C675.304 863.678 697.894 851.896 719 838.308C725.828 833.912 732.491 829.224 739 824.37C741.61 822.424 745.453 820.226 746.558 816.961C747.469 814.267 745.783 811.439 744.821 809C742.063 802.006 739.213 794.567 734 789z"/>
<path style="fill:#959571; stroke:none;" d="M750 814L751 815L750 814z"/>
<path style="fill:#6c6c53; stroke:none;" d="M748 815L749 816L748 815z"/>
<path style="fill:#3e3e2f; stroke:none;" d="M749 815L750 816L749 815z"/>
<path style="fill:#000000; stroke:none;" d="M747.667 816.333C747.222 816.778 748.278 816.722 748.333 816.667C748.778 816.222 747.722 816.278 747.667 816.333z"/>
<path style="fill:#39391d; stroke:none;" d="M747 817L748 818L747 817z"/>
<path style="fill:#cccc33; stroke:none;" d="M506 902C534.793 902 562.857 898.285 591 892.21C598.073 890.683 605.046 888.852 612 886.859C615.313 885.909 619.748 885.199 622.529 883.066C625.808 880.551 627.396 875.53 629.309 872C633.995 863.349 638.397 854.538 641 845C633.803 846.706 627.006 849.974 620 852.333C606.852 856.758 593.55 860.583 580 863.576C572.716 865.184 565.387 866.807 558 867.869C553.804 868.472 548.012 868.283 544.275 870.434C541.276 872.16 540.259 876.206 538.532 879C535.815 883.394 532.086 887.321 528 890.471C521.403 895.555 511.375 895.888 506 902z"/>
<path style="fill:#cccc00; stroke:none;" d="M382 853C377.637 863.851 370.44 870.418 362 878C376.948 884.99 393.942 888.878 410 892.424C436.313 898.236 463.047 902 490 902C512.276 902 535.27 892.701 543 870C528.753 871.124 514.294 872.921 500 872.921C460.058 872.921 419.925 865.34 382 853z"/>
</svg>
